HIERARCHY
ROOT Hips
{
	OFFSET -339.306915 540.749023 89.171944
	CHANNELS 6 Xposition Yposition Zposition Zrotation Yrotation Xrotation
	JOINT Spine
	{
		OFFSET 0.000000 2.080078 8.814247
		CHANNELS 6 Xposition Yposition Zposition Zrotation Yrotation Xrotation
		JOINT Spine1
		{
			OFFSET 0.000000 0.000000 8.844139
			CHANNELS 6 Xposition Yposition Zposition Zrotation Yrotation Xrotation
			JOINT Spine2
			{
				OFFSET 0.000000 0.000000 11.682266
				CHANNELS 6 Xposition Yposition Zposition Zrotation Yrotation Xrotation
				JOINT Spine3
				{
					OFFSET 0.000000 0.000000 11.746696
					CHANNELS 6 Xposition Yposition Zposition Zrotation Yrotation Xrotation
					JOINT Neck
					{
						OFFSET 0.000000 0.000000 17.658264
						CHANNELS 6 Xposition Yposition Zposition Zrotation Yrotation Xrotation
						JOINT Neck1
						{
							OFFSET 0.000000 0.000000 5.101517
							CHANNELS 6 Xposition Yposition Zposition Zrotation Yrotation Xrotation
							JOINT Head
							{
								OFFSET 0.000000 0.000000 5.101517
								CHANNELS 6 Xposition Yposition Zposition Zrotation Yrotation Xrotation
								JOINT HeadEnd
								{
									OFFSET 0.000000 0.000000 11.655090
									CHANNELS 6 Xposition Yposition Zposition Zrotation Yrotation Xrotation
									End Site
									{
										OFFSET 0.000000 0.000000 0.100006
									}
								}
							}
						}
					}
					JOINT RightShoulder
					{
						OFFSET -2.625397 0.000000 11.175217
						CHANNELS 6 Xposition Yposition Zposition Zrotation Yrotation Xrotation
						JOINT RightArm
						{
							OFFSET 0.000000 0.000000 10.434708
							CHANNELS 6 Xposition Yposition Zposition Zrotation Yrotation Xrotation
							JOINT RightForeArm
							{
								OFFSET 0.000000 0.000000 29.628418
								CHANNELS 6 Xposition Yposition Zposition Zrotation Yrotation Xrotation
								JOINT RightHand
								{
									OFFSET 0.000000 0.000000 22.857605
									CHANNELS 6 Xposition Yposition Zposition Zrotation Yrotation Xrotation
									JOINT RightHandThumb1
									{
										OFFSET -2.867310 -2.944275 3.959564
										CHANNELS 6 Xposition Yposition Zposition Zrotation Yrotation Xrotation
										JOINT RightHandThumb2
										{
											OFFSET 0.000000 0.000000 3.350403
											CHANNELS 6 Xposition Yposition Zposition Zrotation Yrotation Xrotation
											JOINT RightHandThumb3
											{
												OFFSET 0.000000 0.000000 3.756516
												CHANNELS 6 Xposition Yposition Zposition Zrotation Yrotation Xrotation
												JOINT RightHandThumb4
												{
													OFFSET 0.000000 0.000000 3.147339
													CHANNELS 6 Xposition Yposition Zposition Zrotation Yrotation Xrotation
													End Site
													{
														OFFSET 0.000000 0.000000 0.100006
													}
												}
											}
										}
									}
									JOINT RightHandIndex1
									{
										OFFSET -0.086761 -2.345276 10.030899
										CHANNELS 6 Xposition Yposition Zposition Zrotation Yrotation Xrotation
										JOINT RightHandIndex2
										{
											OFFSET 0.000000 0.000000 4.061096
											CHANNELS 6 Xposition Yposition Zposition Zrotation Yrotation Xrotation
											JOINT RightHandIndex3
											{
												OFFSET 0.000000 0.000000 3.248871
												CHANNELS 6 Xposition Yposition Zposition Zrotation Yrotation Xrotation
												JOINT RightHandIndex4
												{
													OFFSET 0.000000 0.000000 2.639709
													CHANNELS 6 Xposition Yposition Zposition Zrotation Yrotation Xrotation
													End Site
													{
														OFFSET 0.000000 0.000000 0.100006
													}
												}
											}
										}
									}
									JOINT RightHandMiddle1
									{
										OFFSET 0.104095 -0.006775 9.502945
										CHANNELS 6 Xposition Yposition Zposition Zrotation Yrotation Xrotation
										JOINT RightHandMiddle2
										{
											OFFSET 0.000000 0.000000 4.568726
											CHANNELS 6 Xposition Yposition Zposition Zrotation Yrotation Xrotation
											JOINT RightHandMiddle3
											{
												OFFSET 0.000000 0.000000 3.654984
												CHANNELS 6 Xposition Yposition Zposition Zrotation Yrotation Xrotation
												JOINT RightHandMiddle4
												{
													OFFSET 0.000000 0.000000 2.741241
													CHANNELS 6 Xposition Yposition Zposition Zrotation Yrotation Xrotation
													End Site
													{
														OFFSET 0.000000 0.000000 0.100006
													}
												}
											}
										}
									}
									JOINT RightHandRing1
									{
										OFFSET 0.086761 2.267456 8.921707
										CHANNELS 6 Xposition Yposition Zposition Zrotation Yrotation Xrotation
										JOINT RightHandRing2
										{
											OFFSET 0.000000 0.000000 4.061096
											CHANNELS 6 Xposition Yposition Zposition Zrotation Yrotation Xrotation
											JOINT RightHandRing3
											{
												OFFSET 0.000000 0.000000 3.654984
												CHANNELS 6 Xposition Yposition Zposition Zrotation Yrotation Xrotation
												JOINT RightHandRing4
												{
													OFFSET 0.000000 0.000000 2.741241
													CHANNELS 6 Xposition Yposition Zposition Zrotation Yrotation Xrotation
													End Site
													{
														OFFSET 0.000000 0.000000 0.100006
													}
												}
											}
										}
									}
									JOINT RightHandPinky1
									{
										OFFSET -0.173492 4.467224 7.976990
										CHANNELS 6 Xposition Yposition Zposition Zrotation Yrotation Xrotation
										JOINT RightHandPinky2
										{
											OFFSET 0.000000 0.000000 3.350403
											CHANNELS 6 Xposition Yposition Zposition Zrotation Yrotation Xrotation
											JOINT RightHandPinky3
											{
												OFFSET 0.000000 0.000000 2.842758
												CHANNELS 6 Xposition Yposition Zposition Zrotation Yrotation Xrotation
												JOINT RightHandPinky4
												{
													OFFSET 0.000000 0.000000 2.639709
													CHANNELS 6 Xposition Yposition Zposition Zrotation Yrotation Xrotation
													End Site
													{
														OFFSET 0.000000 0.000000 0.100006
													}
												}
											}
										}
									}
									JOINT RightForeArmEnd
									{
										OFFSET 0.000000 0.000000 0.000000
										CHANNELS 6 Xposition Yposition Zposition Zrotation Yrotation Xrotation
										End Site
										{
											OFFSET 0.000000 0.000000 0.100006
										}
									}
								}
								JOINT RightArmEnd
								{
									OFFSET 0.000000 0.000000 0.000000
									CHANNELS 6 Xposition Yposition Zposition Zrotation Yrotation Xrotation
									End Site
									{
										OFFSET 0.000000 0.000000 0.100006
									}
								}
							}
						}
					}
					JOINT LeftShoulder
					{
						OFFSET 2.625397 0.000000 11.175217
						CHANNELS 6 Xposition Yposition Zposition Zrotation Yrotation Xrotation
						JOINT LeftArm
						{
							OFFSET 0.000000 0.000000 10.813629
							CHANNELS 6 Xposition Yposition Zposition Zrotation Yrotation Xrotation
							JOINT LeftForeArm
							{
								OFFSET 0.000000 0.000000 28.724777
								CHANNELS 6 Xposition Yposition Zposition Zrotation Yrotation Xrotation
								JOINT LeftHand
								{
									OFFSET 0.644379 0.328857 25.716171
									CHANNELS 6 Xposition Yposition Zposition Zrotation Yrotation Xrotation
									JOINT LeftHandThumb1
									{
										OFFSET 2.867310 -2.944275 3.959564
										CHANNELS 6 Xposition Yposition Zposition Zrotation Yrotation Xrotation
										JOINT LeftHandThumb2
										{
											OFFSET 0.000000 0.000000 3.350403
											CHANNELS 6 Xposition Yposition Zposition Zrotation Yrotation Xrotation
											JOINT LeftHandThumb3
											{
												OFFSET 0.000000 0.000000 3.756516
												CHANNELS 6 Xposition Yposition Zposition Zrotation Yrotation Xrotation
												JOINT LeftHandThumb4
												{
													OFFSET 0.000000 0.000000 3.100006
													CHANNELS 6 Xposition Yposition Zposition Zrotation Yrotation Xrotation
													End Site
													{
														OFFSET 0.000000 0.000000 0.100006
													}
												}
											}
										}
									}
									JOINT LeftHandIndex1
									{
										OFFSET 0.086761 -2.345276 10.030899
										CHANNELS 6 Xposition Yposition Zposition Zrotation Yrotation Xrotation
										JOINT LeftHandIndex2
										{
											OFFSET 0.000000 0.000000 4.061096
											CHANNELS 6 Xposition Yposition Zposition Zrotation Yrotation Xrotation
											JOINT LeftHandIndex3
											{
												OFFSET 0.000000 0.000000 3.248871
												CHANNELS 6 Xposition Yposition Zposition Zrotation Yrotation Xrotation
												JOINT LeftHandIndex4
												{
													OFFSET 0.000000 0.000000 2.639709
													CHANNELS 6 Xposition Yposition Zposition Zrotation Yrotation Xrotation
													End Site
													{
														OFFSET 0.000000 0.000000 0.100006
													}
												}
											}
										}
									}
									JOINT LeftHandMiddle1
									{
										OFFSET -0.104095 -0.006775 9.502945
										CHANNELS 6 Xposition Yposition Zposition Zrotation Yrotation Xrotation
										JOINT LeftHandMiddle2
										{
											OFFSET 0.000000 0.000000 4.568726
											CHANNELS 6 Xposition Yposition Zposition Zrotation Yrotation Xrotation
											JOINT LeftHandMiddle3
											{
												OFFSET 0.000000 0.000000 3.654984
												CHANNELS 6 Xposition Yposition Zposition Zrotation Yrotation Xrotation
												JOINT LeftHandMiddle4
												{
													OFFSET 0.000000 0.000000 2.741241
													CHANNELS 6 Xposition Yposition Zposition Zrotation Yrotation Xrotation
													End Site
													{
														OFFSET 0.000000 0.000000 0.100006
													}
												}
											}
										}
									}
									JOINT LeftHandRing1
									{
										OFFSET -0.086761 2.267456 8.921707
										CHANNELS 6 Xposition Yposition Zposition Zrotation Yrotation Xrotation
										JOINT LeftHandRing2
										{
											OFFSET 0.000000 0.000000 4.061096
											CHANNELS 6 Xposition Yposition Zposition Zrotation Yrotation Xrotation
											JOINT LeftHandRing3
											{
												OFFSET 0.000000 0.000000 3.654984
												CHANNELS 6 Xposition Yposition Zposition Zrotation Yrotation Xrotation
												JOINT LeftHandRing4
												{
													OFFSET 0.000000 0.000000 2.741241
													CHANNELS 6 Xposition Yposition Zposition Zrotation Yrotation Xrotation
													End Site
													{
														OFFSET 0.000000 0.000000 0.100006
													}
												}
											}
										}
									}
									JOINT LeftHandPinky1
									{
										OFFSET 0.173492 4.467224 7.976990
										CHANNELS 6 Xposition Yposition Zposition Zrotation Yrotation Xrotation
										JOINT LeftHandPinky2
										{
											OFFSET 0.000000 0.000000 3.350403
											CHANNELS 6 Xposition Yposition Zposition Zrotation Yrotation Xrotation
											JOINT LeftHandPinky3
											{
												OFFSET 0.000000 0.000000 2.842758
												CHANNELS 6 Xposition Yposition Zposition Zrotation Yrotation Xrotation
												JOINT LeftHandPinky4
												{
													OFFSET 0.000000 0.000000 2.639709
													CHANNELS 6 Xposition Yposition Zposition Zrotation Yrotation Xrotation
													End Site
													{
														OFFSET 0.000000 0.000000 0.100006
													}
												}
											}
										}
									}
									JOINT LeftForeArmEnd
									{
										OFFSET 0.000000 0.000000 0.000000
										CHANNELS 6 Xposition Yposition Zposition Zrotation Yrotation Xrotation
										End Site
										{
											OFFSET 0.000000 0.000000 0.100006
										}
									}
								}
								JOINT LeftArmEnd
								{
									OFFSET 0.000000 0.000000 0.000000
									CHANNELS 6 Xposition Yposition Zposition Zrotation Yrotation Xrotation
									End Site
									{
										OFFSET 0.000000 0.000000 0.100006
									}
								}
							}
						}
					}
				}
			}
		}
	}
	JOINT RightUpLeg
	{
		OFFSET -11.289948 0.000000 0.000000
		CHANNELS 6 Xposition Yposition Zposition Zrotation Yrotation Xrotation
		JOINT RightLeg
		{
			OFFSET 0.000000 0.000000 -38.200329
			CHANNELS 6 Xposition Yposition Zposition Zrotation Yrotation Xrotation
			JOINT RightFoot
			{
				OFFSET 0.000000 0.000000 -39.900856
				CHANNELS 6 Xposition Yposition Zposition Zrotation Yrotation Xrotation
				JOINT RightToeBase
				{
					OFFSET 0.000000 -15.261658 0.000001
					CHANNELS 6 Xposition Yposition Zposition Zrotation Yrotation Xrotation
					JOINT RightToeBaseEnd
					{
						OFFSET 0.000000 -7.370728 0.000001
						CHANNELS 6 Xposition Yposition Zposition Zrotation Yrotation Xrotation
						End Site
						{
							OFFSET 0.000000 0.000000 0.100000
						}
					}
				}
				JOINT RightLegEnd
				{
					OFFSET 0.000000 0.000000 0.000000
					CHANNELS 6 Xposition Yposition Zposition Zrotation Yrotation Xrotation
					End Site
					{
						OFFSET 0.000000 0.000000 0.100000
					}
				}
			}
			JOINT RightUpLegEnd
			{
				OFFSET 0.000000 0.000000 0.000000
				CHANNELS 6 Xposition Yposition Zposition Zrotation Yrotation Xrotation
				End Site
				{
					OFFSET 0.000000 0.000000 0.099998
				}
			}
		}
	}
	JOINT LeftUpLeg
	{
		OFFSET 11.315674 0.000000 0.000000
		CHANNELS 6 Xposition Yposition Zposition Zrotation Yrotation Xrotation
		JOINT LeftLeg
		{
			OFFSET 0.000000 0.000000 -38.200329
			CHANNELS 6 Xposition Yposition Zposition Zrotation Yrotation Xrotation
			JOINT LeftFoot
			{
				OFFSET 0.000000 0.000000 -39.900856
				CHANNELS 6 Xposition Yposition Zposition Zrotation Yrotation Xrotation
				JOINT LeftToeBase
				{
					OFFSET 0.000000 -15.261658 0.000001
					CHANNELS 6 Xposition Yposition Zposition Zrotation Yrotation Xrotation
					JOINT LeftToeBaseEnd
					{
						OFFSET 0.000000 -7.539978 0.000001
						CHANNELS 6 Xposition Yposition Zposition Zrotation Yrotation Xrotation
						End Site
						{
							OFFSET 0.000000 0.000000 0.100000
						}
					}
				}
				JOINT LeftLegEnd
				{
					OFFSET 0.000000 0.000000 0.000000
					CHANNELS 6 Xposition Yposition Zposition Zrotation Yrotation Xrotation
					End Site
					{
						OFFSET 0.000000 0.000000 0.100000
					}
				}
			}
			JOINT LeftUpLegEnd
			{
				OFFSET 0.000000 0.000000 0.000000
				CHANNELS 6 Xposition Yposition Zposition Zrotation Yrotation Xrotation
				End Site
				{
					OFFSET 0.000000 0.000000 0.099998
				}
			}
		}
	}
}
MOTION
Frames: 2
Frame Time: 0.016667
-18.853851 -36.385315 83.812897 -16.396588 -4.297538 -17.064282 0.000017 2.080101 8.814241 -0.156630 1.147933 11.659617 -0.000014 -0.000020 8.844152 -0.211973 -0.966011 5.508174 -0.000004 -0.000012 11.682281 -1.314088 -0.542027 10.853990 -0.000010 0.000028 11.746707 -0.908546 0.806217 8.305084 -0.000004 -0.000002 17.658274 10.289791 22.352083 0.601238 0.000007 0.000010 5.101551 1.773216 2.778846 -8.100475 0.000000 0.000012 5.101570 -0.223021 2.611052 -14.760765 -0.000002 -0.000000 11.655091 0.000000 0.000000 -0.000000 -2.625408 0.000002 11.175238 14.749713 -78.931654 0.648605 -0.000023 -0.000023 10.434706 -41.609803 -62.630895 69.161731 0.000008 0.000076 29.628399 24.864231 0.534009 106.378086 0.000015 -0.000105 22.857582 7.430975 -12.662308 -7.108202 -2.867310 -2.944244 3.959526 31.933139 -15.385303 54.454913 0.000002 -0.000019 3.350395 -8.550967 6.464777 -15.863287 -0.000006 0.000008 3.756504 -5.744552 4.745006 -10.902152 0.000008 0.000008 3.147341 -0.000002 -0.000000 0.000002 -0.086756 -2.345272 10.030880 188.313274 -178.588369 -162.753818 0.000013 -0.000019 4.061100 -0.501055 -0.000737 0.003119 0.000009 0.000018 3.248865 -0.001713 0.000181 0.001072 0.000000 -0.000003 2.639708 -0.000000 -0.000000 0.000002 0.104076 -0.006763 9.502941 181.862352 -170.215759 -170.517858 0.000015 0.000019 4.568724 -0.478984 -6.523966 -0.343584 0.000003 -0.000005 3.654984 0.020304 -6.524443 -0.343485 -0.000006 0.000055 2.741281 0.000001 -0.000001 0.000001 0.086769 2.267427 8.921715 167.217005 -144.884363 -167.456048 0.000003 0.000029 4.061104 0.619103 -25.580319 1.677765 0.000027 -0.000029 3.654986 -0.380899 -25.580220 1.677761 0.000012 0.000004 2.741249 -0.000000 -0.000001 -0.000000 -0.173492 4.467249 7.976982 144.337511 -128.247143 -158.566516 0.000023 0.000027 3.350426 -1.076349 -38.322883 8.837824 -0.000025 0.000023 2.842758 -3.076356 -38.322880 8.837844 0.000011 -0.000011 2.639699 0.000000 0.000000 -0.000003 0.000014 -0.000004 -0.000033 0.000000 -0.000000 -0.000002 -0.000001 0.000007 0.000005 -0.000001 0.000000 0.000000 2.625395 -0.000013 11.175220 -18.030002 84.652422 -0.652648 0.000042 0.000006 10.813612 -0.353264 81.748144 17.800366 0.000031 0.000061 28.724743 -30.919105 1.279995 113.910644 0.644348 0.328793 25.716160 -9.342084 41.933431 2.147845 2.867298 -2.944275 3.959633 -31.969950 15.218346 54.724948 -0.000002 0.000019 3.350430 8.189145 -6.261725 -15.233320 0.000011 0.000004 3.756521 5.506913 -4.583292 -10.473291 0.000012 -0.000069 3.099992 0.000000 -0.000001 -0.000001 0.086764 -2.345280 10.030914 7.657498 -5.531361 13.742626 -0.000007 0.000009 4.061115 -0.524669 0.044244 -0.000432 0.000014 -0.000020 3.248903 -0.023356 -0.024644 0.000024 -0.000008 -0.000010 2.639745 0.000000 0.000002 -0.000001 -0.104109 -0.006783 9.502934 4.795581 6.854366 8.702315 0.000001 -0.000004 4.568729 -0.485720 5.232995 0.275141 -0.000009 0.000005 3.654993 0.014601 5.232559 0.275173 0.000005 0.000002 2.741250 -0.000000 0.000001 -0.000001 -0.086769 2.267462 8.921745 4.593251 48.588364 15.808261 -0.000023 0.000022 4.061100 0.295263 33.630677 -2.331649 0.000010 -0.000017 3.654942 -0.704732 33.630649 -2.331646 0.000005 0.000001 2.741257 0.000001 0.000001 -0.000000 0.173500 4.467250 7.976995 -10.721212 70.467116 -7.898937 -0.000011 -0.000031 3.350403 -3.626517 48.175144 -12.545365 -0.000011 0.000019 2.842758 -5.626525 48.175083 -12.545348 -0.000013 0.000021 2.639720 -0.000002 -0.000002 -0.000001 0.000014 -0.000023 0.000014 0.000004 -0.000004 0.000000 -0.000018 -0.000005 0.000015 -0.000000 -0.000001 -0.000003 -11.289954 0.000000 0.000009 11.013273 -0.417766 -5.297863 -0.000003 0.000037 -38.200317 -0.000301 -0.001099 47.323157 0.000006 -0.000016 -39.900856 -5.616670 2.844449 2.509706 0.000009 -15.261654 0.000000 -0.246062 0.997555 -20.263616 0.000011 -7.370728 0.000002 0.000000 0.000000 0.000000 -0.000005 0.000059 -0.000001 0.000000 0.000000 0.000002 -0.000004 0.000001 -0.000009 -0.000000 0.000001 -0.000002 11.315634 -0.000026 -0.000002 12.529490 1.674107 2.355540 -0.000009 0.000059 -38.200287 0.098461 -0.074922 37.404339 0.000027 -0.000052 -39.900860 9.418458 0.765937 3.296953 -0.000012 -15.261617 0.000003 -1.139223 0.027349 -18.266296 0.000001 -7.539976 0.000002 -0.000000 -0.000000 0.000001 0.000001 0.000001 0.000001 -0.000000 -0.000000 0.000001 -0.000005 -0.000002 -0.000011 0.000000 -0.000000 -0.000002 
-18.836578 -36.346802 83.743546 -16.732162 -4.393679 -17.107708 -0.000002 2.080049 8.814253 -0.115002 1.181343 11.789276 0.000015 -0.000047 8.844136 -0.185675 -0.942608 5.567809 0.000013 0.000017 11.682272 -1.165985 -0.512467 10.941604 -0.000011 0.000020 11.746696 -0.823799 0.766554 8.340330 0.000008 -0.000007 17.658264 10.501307 22.328740 0.227898 -0.000004 0.000032 5.101507 2.079452 2.758905 -8.393661 0.000001 0.000018 5.101515 -0.225895 2.632389 -14.899986 -0.000001 -0.000001 11.655069 0.000000 0.000001 0.000000 -2.625404 -0.000015 11.175249 14.830391 -78.831161 0.657168 0.000015 0.000000 10.434702 -40.335129 -62.825917 67.802619 0.000004 -0.000053 29.628414 24.247327 0.475802 104.859284 -0.000019 -0.000051 22.857613 7.707419 -12.095667 -6.894924 -2.867325 -2.944321 3.959541 31.933142 -15.385303 54.454933 0.000008 -0.000019 3.350414 -8.550969 6.464783 -15.863237 0.000011 0.000015 3.756519 -5.744558 4.744985 -10.902212 0.000002 0.000051 3.147338 0.000002 -0.000000 -0.000001 -0.086725 -2.345352 10.030913 188.206887 -178.083495 -161.850061 0.000009 0.000002 4.061102 -0.500406 -0.019810 0.001372 -0.000014 -0.000000 3.248866 -0.001107 0.011149 -0.000359 0.000009 0.000005 2.639703 0.000000 0.000000 -0.000002 0.104088 -0.006830 9.502956 181.794787 -169.821848 -169.745022 0.000002 0.000001 4.568727 -0.477712 -6.770011 -0.356622 0.000033 -0.000006 3.655005 0.022932 -6.770498 -0.356609 0.000001 -0.000009 2.741265 0.000000 -0.000003 0.000001 0.086765 2.267366 8.921722 167.331944 -145.229602 -167.130836 0.000010 -0.000012 4.061104 0.621137 -25.352212 1.662924 0.000039 -0.000013 3.654990 -0.377664 -25.351857 1.662226 -0.000002 -0.000003 2.741255 0.000001 -0.000000 -0.000000 -0.173492 4.467148 7.977013 145.130018 -128.996455 -159.056213 -0.000004 0.000023 3.350418 -0.963937 -37.747351 8.655369 -0.000023 -0.000024 2.842781 -2.963918 -37.747310 8.655370 -0.000001 -0.000000 2.639715 0.000000 -0.000001 0.000001 -0.000006 -0.000068 0.000001 0.000001 -0.000001 -0.000001 -0.000001 -0.000001 0.000024 0.000000 0.000000 -0.000001 2.625422 -0.000010 11.175234 -18.014788 84.831673 -0.676405 -0.000011 -0.000018 10.813620 0.581186 80.233016 18.530918 0.000031 0.000031 28.724789 -30.825832 1.323794 112.886266 0.644356 0.328781 25.716181 -9.300139 40.103299 3.059293 2.867321 -2.944275 3.959610 -31.933136 15.385308 54.454906 -0.000019 -0.000027 3.350418 8.551002 -6.464765 -15.863282 0.000008 0.000004 3.756527 5.744547 -4.744962 -10.902135 0.000001 0.000012 3.099990 -0.000003 0.000000 -0.000000 0.086756 -2.345272 10.030872 7.765504 -4.876876 13.752056 -0.000015 0.000006 4.061101 -0.522935 0.082605 -0.000773 -0.000004 -0.000022 3.248893 -0.021717 -0.045825 0.000028 0.000026 -0.000004 2.639708 0.000000 -0.000000 -0.000000 -0.104095 -0.006784 9.502949 4.868046 7.241426 8.708230 -0.000008 0.000013 4.568735 -0.483458 5.507112 0.289761 0.000012 -0.000012 3.655008 0.018494 5.507127 0.289943 -0.000008 0.000008 2.741283 -0.000002 0.000001 -0.000001 -0.086750 2.267458 8.921684 4.285493 47.452312 14.876919 0.000005 -0.000024 4.061098 0.331993 32.865402 -2.264660 0.000003 0.000030 3.655014 -0.668014 32.865415 -2.264665 -0.000009 -0.000001 2.741257 0.000001 0.000001 -0.000000 0.173483 4.467238 7.976969 -10.359280 69.390631 -7.753894 -0.000011 0.000018 3.350418 -3.404162 47.495930 -12.245363 -0.000011 0.000002 2.842751 -5.404146 47.495913 -12.245332 0.000001 0.000007 2.639714 0.000000 -0.000002 -0.000001 0.000008 -0.000003 0.000026 -0.000000 0.000001 0.000000 0.000000 -0.000007 0.000017 0.000001 -0.000001 -0.000001 -11.289970 0.000044 -0.000009 11.254438 -0.384385 -5.483219 0.000012 0.000064 -38.200264 -0.001220 0.000010 47.648346 0.000012 0.000070 -39.900848 -5.525154 2.862465 2.451304 0.000008 -15.261640 0.000003 -0.245956 0.998831 -20.259046 -0.000005 -7.370663 0.000002 -0.000001 -0.000000 -0.000001 0.000000 0.000050 0.000002 0.000002 0.000000 -0.000000 -0.000004 0.000005 -0.000005 -0.000001 0.000000 -0.000000 11.315655 0.000051 0.000008 12.652557 1.743520 2.313574 -0.000008 0.000060 -38.200260 0.089181 -0.068773 37.637508 0.000025 -0.000009 -39.900856 9.662801 0.863041 3.193335 0.000023 -15.261638 -0.000004 -1.148828 0.033628 -18.228704 -0.000000 -7.539917 0.000002 -0.000000 -0.000000 0.000001 0.000029 -0.000002 -0.000001 0.000000 -0.000000 0.000002 -0.000000 -0.000060 -0.000006 -0.000001 -0.000000 0.000000 
